<svg width="258" height="127" viewBox="0 0 258 127" fill="none" xmlns="http://www.w3.org/2000/svg">
<path d="M20.0333 82.6509V65.9845C20.0333 65.3276 19.4499 64.7969 18.7315 64.7969H0.462046C0.205738 64.7969 0 64.9844 0 65.2168C0 65.3337 0.0522995 65.4383 0.134899 65.5151L19.2458 82.9491C19.3285 83.0245 19.4448 83.0721 19.5713 83.0721C19.8276 83.0721 20.0333 82.8833 20.0333 82.6509Z" fill="#612E8A"/>
<path d="M43.7087 82.1628V65.9502C43.7087 65.3118 43.1421 64.7949 42.4422 64.7949H24.6703C24.4224 64.7949 24.2217 64.9781 24.2217 65.2039C24.2217 65.3177 24.2722 65.4193 24.3532 65.493L42.9431 82.4517C43.024 82.5254 43.1353 82.5716 43.2601 82.5716C43.508 82.5716 43.7087 82.3887 43.7087 82.1628Z" fill="#8A3B96"/>
<path d="M67.3844 82.1628V65.9502C67.3844 65.3118 66.8179 64.7949 66.118 64.7949H48.346C48.0981 64.7949 47.8975 64.9781 47.8975 65.2039C47.8975 65.3177 47.948 65.4193 48.029 65.493L66.6189 82.4517C66.6998 82.5254 66.8111 82.5716 66.9359 82.5716C67.1838 82.5716 67.3844 82.3887 67.3844 82.1628Z" fill="#F47421"/>
<path d="M20.0329 60.5651V44.3526C20.0329 43.7141 19.4663 43.1973 18.7665 43.1973H0.994451C0.746556 43.1973 0.545898 43.3804 0.545898 43.6063C0.545898 43.7201 0.596468 43.8217 0.677443 43.8971L19.2673 60.8542C19.3482 60.9279 19.4595 60.9741 19.5843 60.9741C19.8322 60.9741 20.0329 60.791 20.0329 60.5651Z" fill="#8A3B96"/>
<path d="M43.7087 60.5651V44.3526C43.7087 43.7141 43.1421 43.1973 42.4422 43.1973H24.6703C24.4224 43.1973 24.2217 43.3804 24.2217 43.6063C24.2217 43.7201 24.2722 43.8217 24.3532 43.8971L42.9431 60.8542C43.024 60.9279 43.1353 60.9741 43.2601 60.9741C43.508 60.9741 43.7087 60.791 43.7087 60.5651Z" fill="#BB88BD"/>
<path d="M67.3846 56.9946V44.1156C67.3846 43.6095 66.9344 43.1973 66.3779 43.1973H52.2601C52.0645 43.1973 51.9043 43.3433 51.9043 43.5234C51.9043 43.6128 51.9449 43.6944 52.0089 43.7528L66.7758 57.224C66.8399 57.2842 66.9293 57.3195 67.0288 57.3195C67.2244 57.3195 67.3846 57.1743 67.3846 56.9946Z" fill="#F0492C"/>
<path d="M91.0604 55.6947V44.028C91.0604 43.5696 90.6524 43.1973 90.1481 43.1973H77.3609C77.1822 43.1973 77.0371 43.3281 77.0371 43.4912C77.0371 43.5727 77.0725 43.6464 77.1316 43.6988L90.5091 55.9023C90.5681 55.956 90.649 55.99 90.7367 55.99C90.9154 55.99 91.0604 55.8578 91.0604 55.6947Z" fill="#FDB913"/>
<path d="M20.0329 38.9675V22.755C20.0329 22.1165 19.4663 21.5996 18.7665 21.5996H0.994451C0.746556 21.5996 0.545898 21.7828 0.545898 22.0087C0.545898 22.1225 0.596468 22.2241 0.677443 22.2978L19.2673 39.2565C19.3482 39.3302 19.4595 39.3764 19.5843 39.3764C19.8322 39.3764 20.0329 39.1934 20.0329 38.9675Z" fill="#009347"/>
<path d="M43.7088 35.395V22.516C43.7088 22.0099 43.2586 21.5977 42.7021 21.5977H28.5843C28.3887 21.5977 28.2285 21.7437 28.2285 21.9238C28.2285 22.0132 28.2691 22.0948 28.333 22.1532L43.1001 35.6244C43.1642 35.6846 43.2535 35.7199 43.353 35.7199C43.5486 35.7199 43.7088 35.5747 43.7088 35.395Z" fill="#BCDA85"/>
<path d="M67.3846 34.0971V22.4303C67.3846 21.9719 66.9766 21.5996 66.4724 21.5996H53.6851C53.5063 21.5996 53.3613 21.7304 53.3613 21.8935C53.3613 21.9751 53.3967 22.0488 53.4558 22.1011L66.8333 34.3047C66.8923 34.3584 66.9732 34.3924 67.0609 34.3924C67.2396 34.3924 67.3846 34.2602 67.3846 34.0971Z" fill="#8D95CA"/>
<path d="M91.0603 31.743V22.273C91.0603 21.9006 90.7298 21.5977 90.32 21.5977H79.9391C79.7958 21.5977 79.6777 21.7054 79.6777 21.8375C79.6777 21.9038 79.7064 21.9636 79.7553 22.0067L90.6134 31.9121C90.6608 31.9557 90.7265 31.9814 90.799 31.9814C90.9423 31.9814 91.0603 31.8756 91.0603 31.743Z" fill="#009CDA"/>
<path d="M20.0331 13.7974V0.91836C20.0331 0.412264 19.5828 0 19.0263 0H4.90856C4.71296 0 4.55273 0.146076 4.55273 0.32617C4.55273 0.415564 4.59336 0.496659 4.65727 0.555528L19.4243 14.0268C19.4884 14.087 19.5777 14.1223 19.6772 14.1223C19.8728 14.1223 20.0331 13.977 20.0331 13.7974Z" fill="#48B749"/>
<path d="M43.7089 12.4995V0.832683C43.7089 0.374291 43.3008 0.00195312 42.7966 0.00195312H30.0093C29.8306 0.00195312 29.6855 0.132831 29.6855 0.295919C29.6855 0.377463 29.7209 0.451124 29.78 0.503452L43.1575 12.7071C43.2165 12.7607 43.2974 12.7947 43.3851 12.7947C43.5638 12.7947 43.7089 12.6626 43.7089 12.4995Z" fill="#BCDA85"/>
<path d="M67.3845 10.1454V0.675363C67.3845 0.302963 67.054 0 66.6442 0H56.2633C56.12 0 56.002 0.107743 56.002 0.23987C56.002 0.306152 56.0306 0.365907 56.0795 0.409077L66.9377 10.3144C66.985 10.358 67.0507 10.3838 67.1232 10.3838C67.2665 10.3838 67.3845 10.278 67.3845 10.1454Z" fill="#0059A5"/>
<path d="M91.0603 10.1454V0.675363C91.0603 0.302963 90.7298 0 90.32 0H79.9391C79.7958 0 79.6777 0.107743 79.6777 0.23987C79.6777 0.306152 79.7064 0.365907 79.7553 0.409077L90.6134 10.3144C90.6608 10.358 90.7265 10.3838 90.799 10.3838C90.9423 10.3838 91.0603 10.278 91.0603 10.1454Z" fill="#6ACDEC"/>
<path d="M168.952 100.276H171.957V111.063C173.284 109.069 175.391 107.468 178.864 107.468C183.743 107.468 186.591 110.459 186.591 114.837V126.265H183.586V115.514C183.586 112.095 181.558 109.96 178.006 109.96C174.534 109.96 171.957 112.274 171.957 115.727V126.265H168.952V100.276ZM156.081 121.388V110.28H153.271V107.859H156.081V102.305H159.084V107.859H165.485V110.28H159.084V121.032C159.084 123.274 160.45 124.094 162.48 124.094C163.495 124.094 164.354 123.914 165.408 123.453V125.802C164.354 126.3 163.222 126.586 161.777 126.586C158.538 126.586 156.081 125.125 156.081 121.388ZM146.56 100.276H149.565V126.265H146.56V100.276ZM138.83 119.501V117.792C137.348 117.401 135.397 117.009 132.938 117.009C129.191 117.009 127.044 118.504 127.044 120.712V120.782C127.044 123.097 129.387 124.45 132.118 124.45C135.825 124.45 138.83 122.419 138.83 119.501ZM124 120.924V120.854C124 116.902 127.513 114.836 132.626 114.836C135.201 114.836 136.997 115.158 138.791 115.621V115.05C138.791 111.775 136.606 110.066 132.82 110.066C130.44 110.066 128.567 110.6 126.692 111.383L125.796 109.14C128.021 108.215 130.167 107.574 133.132 107.574C135.98 107.574 138.206 108.286 139.649 109.603C141.054 110.884 141.757 112.666 141.757 115.015V126.265H138.791V123.523C137.386 125.16 135.085 126.655 131.533 126.655C127.747 126.655 124 124.699 124 120.924ZM118.387 115.976C118.036 112.629 115.928 109.781 111.948 109.781C108.475 109.781 105.82 112.417 105.392 115.976H118.387ZM112.495 124.306C115.265 124.306 117.216 123.274 118.856 121.708L120.729 123.239C118.699 125.303 116.24 126.692 112.416 126.692C106.874 126.692 102.347 122.811 102.347 117.079C102.347 111.74 106.444 107.468 112.026 107.468C117.997 107.468 121.431 111.81 121.431 117.222C121.431 117.471 121.431 117.756 121.392 118.182H105.392C105.82 122.063 108.943 124.306 112.495 124.306ZM77.3994 101.344H80.4837V112.417H96.249V101.344H99.3332V126.265H96.249V115.05H80.4837V126.265H77.3994V101.344ZM251.538 63.7266H257.47V89.7153H251.538V63.7266ZM240.76 63.7266H246.693V89.7153H240.76V63.7266ZM231.634 78.6792C231.283 76.2579 229.722 74.6211 227.224 74.6211C224.766 74.6211 223.167 76.2225 222.697 78.6792H231.634ZM216.884 80.2807V80.21C216.884 74.7627 221.137 70.2769 227.224 70.2769C234.211 70.2769 237.41 75.2258 237.41 80.6376C237.41 81.0637 237.371 81.5622 237.332 82.0606H222.776C223.361 84.5173 225.235 85.7987 227.887 85.7987C229.879 85.7987 231.322 85.2296 232.961 83.842L236.356 86.5834C234.405 88.7893 231.595 90.143 227.81 90.143C221.528 90.143 216.884 86.1202 216.884 80.2807ZM184.399 70.6338H190.409L193.765 82.2037L197.706 70.5615H202.819L206.8 82.239L210.233 70.6338H216.127L209.608 89.8584H204.262L200.244 78.1455L196.146 89.8584H190.837L184.399 70.6338ZM163.459 63.7267H169.389V73.3382C170.757 71.7368 172.512 70.2769 175.517 70.2769C180.005 70.2769 182.62 72.9829 182.62 77.3626V89.7154H176.688V79.0701C176.688 76.5072 175.36 75.1904 173.097 75.1904C170.834 75.1904 169.389 76.5072 169.389 79.0701V89.7154H163.459V63.7267ZM148.811 84.3035V75.2612H146.314V70.6338H148.811V65.7558H154.744V70.6338H159.661V75.2612H154.744V83.4144C154.744 84.6604 155.329 85.265 156.656 85.265C157.749 85.265 158.725 85.0155 159.582 84.5897V88.9324C158.334 89.6092 156.889 90.0354 154.901 90.0354C151.27 90.0354 148.811 88.7185 148.811 84.3035ZM130.559 70.6338H136.489V74.4781C137.7 71.8445 139.651 70.1354 143.164 70.2769V75.938H142.85C138.909 75.938 136.489 78.1102 136.489 82.6667V89.7154H130.559V70.6338ZM121.582 80.2807V80.2101C121.582 77.398 119.358 74.9412 116.08 74.9412C112.686 74.9412 110.655 77.3257 110.655 80.1393V80.2099C110.655 83.022 112.879 85.4788 116.158 85.4788C119.554 85.4788 121.582 83.0944 121.582 80.2807ZM104.802 80.2807V80.2101C104.802 74.7274 109.64 70.277 116.158 70.277C122.636 70.277 127.437 74.6566 127.437 80.1393V80.2099C127.437 85.6926 122.598 90.143 116.08 90.143C109.601 90.143 104.802 85.7633 104.802 80.2807ZM77.4012 64.7942H82.9424L95.7432 80.1391V64.7942H101.676V89.7153H96.5627L83.3336 73.8735V89.7153H77.4012V64.7942Z" fill="white"/>
<path d="M195.142 110.835C195.602 110.835 195.842 110.636 195.842 110.336C195.842 110.016 195.58 109.858 195.142 109.858H194.336V110.835H195.142ZM193.353 109.081H195.208C196.149 109.081 196.828 109.459 196.828 110.276C196.828 110.855 196.477 111.233 195.951 111.392L196.956 112.708H195.799L194.948 111.551H194.336V112.708H193.353V109.081ZM198.312 110.955V110.933C198.312 109.239 196.869 107.842 194.948 107.842C193.046 107.842 191.584 109.259 191.584 110.953V110.97C191.584 112.664 193.024 114.061 194.948 114.061C196.848 114.061 198.312 112.648 198.312 110.955ZM191.144 110.969V110.952C191.144 109.058 192.827 107.463 194.948 107.463C197.088 107.463 198.747 109.038 198.747 110.932V110.954C198.747 112.846 197.066 114.441 194.948 114.441C192.806 114.441 191.144 112.864 191.144 110.969Z" fill="#0059A5"/>
</svg>
