<svg width="48" height="48" viewBox="0 0 48 48" fill="none" xmlns="http://www.w3.org/2000/svg">
<g clip-path="url(#clip0_976_1464)">
<path d="M39.9597 4.91746C39.7806 4.57286 39.3558 4.43846 39.0116 4.61754C38.667 4.79661 38.5326 5.22105 38.7116 5.56565C39.629 7.33151 39.8216 9.36105 39.254 11.28C39.0277 12.0468 37.0395 18.7807 36.9527 19.115C36.9355 19.1817 36.8758 19.2286 36.8081 19.2286H20.2151C19.8266 19.2286 19.512 19.5431 19.512 19.9317C19.512 20.3199 19.8266 20.6348 20.2151 20.6348H34.6745L34.2838 22.7834C34.2706 22.8544 34.2091 22.9057 34.1369 22.9057H13.8775C13.8054 22.9057 13.7438 22.8544 13.731 22.7834L13.3399 20.6348H17.1532C17.5414 20.6348 17.8564 20.3199 17.8564 19.9317C17.8564 19.5431 17.5414 19.2286 17.1532 19.2286H11.2064C11.1386 19.2286 11.0789 19.1821 11.0617 19.1154C11.0599 19.1081 11.0577 19.1008 11.0559 19.0934L8.76045 11.28C8.06575 8.93038 8.50814 6.45737 9.97444 4.49449C11.4407 2.53197 13.6867 1.40624 16.1366 1.40624C16.8658 1.40624 17.5868 1.50805 18.2801 1.70873C22.0268 2.79381 25.988 2.79381 29.7344 1.70873C30.4276 1.50805 31.1487 1.40624 31.8778 1.40624C33.7627 1.40624 35.5714 2.09032 36.9714 3.33251C37.2618 3.59032 37.7064 3.56395 37.9642 3.27355C38.222 2.98278 38.1953 2.53856 37.9049 2.28075C36.2474 0.810055 34.1069 0 31.8778 0C31.0165 0 30.1636 0.120483 29.3433 0.357787C25.8526 1.36889 22.1619 1.36889 18.6712 0.357787C17.8509 0.120483 16.998 0 16.1366 0C13.2388 0 10.582 1.33154 8.84761 3.65294C7.11324 5.97434 6.58993 8.89962 7.4117 11.6773L9.70381 19.4805C9.88582 20.1609 10.5021 20.6348 11.2064 20.6348H11.9106L12.3475 23.0349C12.4819 23.7751 13.1257 24.3119 13.8775 24.3119H16.9416L17.4382 28.5892L16.9427 28.7218C16.43 28.8591 16.0015 29.188 15.7364 29.6476C15.4709 30.1072 15.4006 30.6426 15.5379 31.1549C15.7756 32.0415 16.5801 32.6274 17.4572 32.6274C17.604 32.6274 17.7531 32.6099 17.9018 32.5758L18.1545 34.7514L17.4843 34.9313C16.4263 35.2147 15.7961 36.306 16.0795 37.3644C16.3172 38.2506 17.1217 38.8369 17.9988 38.8369C18.1687 38.8369 18.3409 38.8149 18.5126 38.7688L18.6177 38.7406L18.8704 40.914L18.2965 41.0678C17.7839 41.2052 17.3558 41.534 17.0903 41.9936C16.8251 42.4532 16.7548 42.9882 16.8921 43.5009C17.0291 44.0133 17.358 44.4417 17.8175 44.7072C18.1237 44.8837 18.4632 44.9742 18.8074 44.9742C18.9799 44.9742 19.1538 44.9515 19.3249 44.9057L19.334 44.9031L19.5255 46.5515C19.6211 47.3773 20.3206 48.0002 21.1523 48.0002H26.8626C27.6939 48.0002 28.3933 47.3773 28.4893 46.5515L28.9811 42.3184L29.7183 42.1207C30.7759 41.8372 31.4061 40.7459 31.1227 39.688C30.9081 38.8874 30.231 38.3326 29.4557 38.2323L29.7432 35.7596L30.5305 35.5487C31.5881 35.2656 32.2184 34.1739 31.9349 33.116C31.7159 32.2986 31.0154 31.7372 30.22 31.6544L30.5052 29.2012L31.0718 29.0496C32.1301 28.7658 32.76 27.6744 32.4765 26.6165C32.277 25.872 31.6775 25.3402 30.9711 25.1886L31.0732 24.3123H34.1369C34.8891 24.3123 35.5326 23.7751 35.6673 23.0353L36.1042 20.6348H36.8081C37.5167 20.6348 38.136 20.1551 38.3139 19.4684C38.3758 19.2297 39.7165 14.6791 40.6027 11.6788C41.2736 9.40939 41.0455 7.00815 39.9597 4.91746ZM27.0922 46.3889C27.0786 46.5057 26.9797 46.5936 26.8626 46.5936H21.1519C21.0347 46.5936 20.9358 46.5057 20.9223 46.3889L20.7069 44.5351L27.5199 42.7095L27.0922 46.3889ZM29.764 40.0516C29.8472 40.3607 29.663 40.6793 29.3539 40.7624L18.9609 43.5471C18.8111 43.5874 18.6547 43.5665 18.5207 43.4892C18.3863 43.4116 18.2903 43.2867 18.2504 43.1369C18.2101 42.9871 18.2306 42.8308 18.3083 42.6967C18.3859 42.5623 18.5108 42.4664 18.6606 42.4261L29.0536 39.6414C29.1038 39.6279 29.1539 39.6217 29.2037 39.6217C29.4597 39.6213 29.6948 39.7927 29.764 40.0516ZM28.0128 38.4644L20.2433 40.5463L19.991 38.3725L28.2816 36.1511L28.0128 38.4644ZM30.5767 33.4796C30.6594 33.7887 30.4752 34.1077 30.1661 34.1904L18.1486 37.4105C17.8395 37.4936 17.5206 37.3094 17.4378 37.0003C17.355 36.6913 17.5392 36.3727 17.8483 36.2895L29.8658 33.0695C29.916 33.0559 29.9665 33.0497 30.016 33.0497C30.2723 33.0497 30.5074 33.2207 30.5767 33.4796ZM31.1183 26.9801C31.201 27.2892 31.0168 27.6082 30.7078 27.6909L26.4114 28.8423C26.0364 28.9426 25.8137 29.3283 25.9144 29.7033C26.0148 30.0782 26.4 30.3009 26.7754 30.2006L29.0437 29.5927L28.7749 31.906L19.5274 34.3838L19.2751 32.2103L23.8153 30.9938C24.1907 30.8931 24.413 30.5074 24.3126 30.1324C24.2123 29.7575 23.8267 29.5348 23.4513 29.6351L17.607 31.2014C17.2979 31.2842 16.9793 31.1 16.8962 30.7909C16.8562 30.6415 16.8768 30.4851 16.9544 30.3507C17.0317 30.2167 17.1569 30.1204 17.3067 30.0804L30.4075 26.57C30.7165 26.4868 31.0355 26.6714 31.1183 26.9801ZM29.537 25.3472L18.8114 28.2212L18.3573 24.3119H29.6575L29.537 25.3472Z" fill="white"/>
<path d="M29.3433 4.10787C25.8526 5.11898 22.162 5.11898 18.6713 4.10787C18.2985 4.00021 17.9081 4.21481 17.8004 4.58797C17.6924 4.96077 17.907 5.35079 18.2801 5.45882C20.1533 6.00154 22.0803 6.2729 24.0073 6.2729C25.9343 6.2729 27.8613 6.00154 29.7345 5.45882C30.1076 5.35079 30.3226 4.96077 30.2146 4.58797C30.1065 4.21481 29.7161 4.00021 29.3433 4.10787Z" fill="white"/>
</g>
<defs>
<clipPath id="clip0_976_1464">
<rect width="48" height="48" fill="white"/>
</clipPath>
</defs>
</svg>
