<svg width="48" height="48" viewBox="0 0 48 48" fill="none" xmlns="http://www.w3.org/2000/svg">
<g clip-path="url(#clip0_976_1424)">
<path d="M6.06934 19.1796C8.26796 23.3768 11.6255 25.9832 14.845 27.5992C19.9901 30.1816 25.5276 30.5076 30.7604 28.5802L30.8555 28.5454" stroke="white" stroke-width="1.5" stroke-miterlimit="10" stroke-linecap="round" stroke-linejoin="round"/>
<path d="M33.8096 27.1816C36.7699 25.5456 39.7678 23.0367 41.7868 19.196" stroke="white" stroke-width="1.5" stroke-miterlimit="10" stroke-linecap="round" stroke-linejoin="round"/>
<path d="M0.693359 18.5166C1.4968 19.4822 2.30614 20.4408 3.11736 21.3972C7.1878 26.1967 11.1469 30.9178 16.4516 33.7796C21.5465 36.5283 26.4408 36.5353 31.5489 33.7795C36.8536 30.9178 40.8126 26.1967 44.8831 21.3972C45.6943 20.4408 46.5036 19.4822 47.3071 18.5166" stroke="white" stroke-width="1.5" stroke-miterlimit="10" stroke-linecap="round" stroke-linejoin="round"/>
<path d="M19.418 20.1345V23.2529C19.418 23.7475 19.8188 24.1484 20.3135 24.1484H23.0856C23.5801 24.1484 23.9811 23.7475 23.9811 23.2529V20.2263" stroke="white" stroke-width="1.5" stroke-miterlimit="10" stroke-linecap="round" stroke-linejoin="round"/>
<path d="M23.9883 20.2263V23.2529C23.9883 23.7476 24.3892 24.1484 24.8838 24.1484H27.656C28.1505 24.1484 28.5514 23.7476 28.5514 23.2529V20.1345" stroke="white" stroke-width="1.5" stroke-miterlimit="10" stroke-linecap="round" stroke-linejoin="round"/>
<path d="M28.583 20.1345V23.3765C28.583 23.8028 28.9287 24.1484 29.3549 24.1484H31.7444C32.1707 24.1484 32.5163 23.8028 32.5163 23.3765V19.9528" stroke="white" stroke-width="1.5" stroke-miterlimit="10" stroke-linecap="round" stroke-linejoin="round"/>
<path d="M32.5156 19.954V22.0646C32.5156 22.4679 32.8426 22.7949 33.2459 22.7949H35.5067C35.9101 22.7949 36.2371 22.4679 36.2371 22.0646V19.7034" stroke="white" stroke-width="1.5" stroke-miterlimit="10" stroke-linecap="round" stroke-linejoin="round"/>
<path d="M19.4177 20.1345V23.3765C19.4177 23.8028 19.072 24.1484 18.6457 24.1484H16.2562C15.8299 24.1484 15.4844 23.8028 15.4844 23.3765V19.9528" stroke="white" stroke-width="1.5" stroke-miterlimit="10" stroke-linecap="round" stroke-linejoin="round"/>
<path d="M15.4842 19.9541V22.0646C15.4842 22.4679 15.1572 22.7949 14.7539 22.7949H12.4931C12.0897 22.7949 11.7627 22.4679 11.7627 22.0646V19.7034" stroke="white" stroke-width="1.5" stroke-miterlimit="10" stroke-linecap="round" stroke-linejoin="round"/>
<path d="M15.4426 11.1329C18.3599 10.0673 21.3402 9.87516 24.0002 12.19C29.1947 7.6695 35.6108 12.7099 40.3934 15.1439C42.6782 16.3068 45.0024 17.381 47.2973 18.5213C47.2973 18.5213 36.2395 20.1698 24.0099 20.2264V20.2266C24.0067 20.2266 24.0035 20.2265 24.0002 20.2265C23.997 20.2265 23.9937 20.2266 23.9904 20.2266V20.2264C11.7608 20.1698 0.703125 18.5213 0.703125 18.5213C2.99803 17.381 5.32219 16.3068 7.60697 15.1439C9.06769 14.4005 10.6807 13.414 12.3649 12.531L12.5073 12.4567" stroke="white" stroke-width="1.5" stroke-miterlimit="10" stroke-linecap="round" stroke-linejoin="round"/>
<path d="M39.3604 34.0441C39.0563 34.689 38.1755 36.2639 36.6234 36.7996C36.5031 36.8412 36.5031 37.0123 36.6234 37.0538C38.1755 37.5895 39.0563 39.1644 39.3604 39.8093C39.4091 39.9125 39.556 39.9125 39.6047 39.8093C39.9088 39.1644 40.7896 37.5895 42.3417 37.0538C42.462 37.0123 42.462 36.8412 42.3417 36.7996C40.7896 36.2639 39.9088 34.689 39.6047 34.0441C39.556 33.9409 39.4091 33.9409 39.3604 34.0441Z" stroke="white" stroke-width="1.5" stroke-miterlimit="10" stroke-linecap="round" stroke-linejoin="round"/>
<path d="M9.46245 1.76723C9.04358 2.65552 7.83045 4.8247 5.69267 5.56252C5.52692 5.6197 5.52692 5.85539 5.69267 5.91258C7.83045 6.65039 9.04358 8.81967 9.46245 9.70786C9.52948 9.84998 9.7318 9.84998 9.79883 9.70786C10.2177 8.81967 11.4308 6.65039 13.5686 5.91258C13.7343 5.85539 13.7343 5.6197 13.5686 5.56252C11.4308 4.8247 10.2177 2.65552 9.79883 1.76723C9.7318 1.62511 9.52948 1.62511 9.46245 1.76723Z" stroke="white" stroke-width="1.5" stroke-miterlimit="10" stroke-linecap="round" stroke-linejoin="round"/>
<path d="M32.441 38.2907C32.0221 39.179 30.809 41.3481 28.6712 42.086C28.5054 42.1431 28.5054 42.3788 28.6712 42.436C30.809 43.1738 32.0221 45.3431 32.441 46.2313C32.5079 46.3734 32.7103 46.3734 32.7773 46.2313C33.1962 45.3431 34.4093 43.1738 36.5471 42.436C36.7128 42.3788 36.7128 42.1431 36.5471 42.086C34.4093 41.3481 33.1962 39.179 32.7773 38.2907C32.7103 38.1485 32.5079 38.1485 32.441 38.2907Z" stroke="white" stroke-width="1.5" stroke-miterlimit="10" stroke-linecap="round" stroke-linejoin="round"/>
</g>
<defs>
<clipPath id="clip0_976_1424">
<rect width="48" height="48" fill="white"/>
</clipPath>
</defs>
</svg>
