<svg width="48" height="48" viewBox="0 0 48 48" fill="none" xmlns="http://www.w3.org/2000/svg">
<path d="M41.2976 4.25077C40.1426 3.21877 38.8248 2.37877 37.3878 1.79827C35.9156 1.20352 34.3421 0.887016 32.7581 0.810516C32.4761 0.797016 32.1933 0.791016 31.9113 0.791016C30.4331 0.794766 28.9151 1.17877 27.5193 1.90252C25.3173 3.04477 22.6901 3.04402 20.4888 1.90252C19.0931 1.17877 17.5743 0.794766 16.0968 0.791016C14.5061 0.791016 12.9161 1.00852 11.4033 1.51102C9.93332 1.99927 8.55782 2.75002 7.34582 3.71377C7.12982 3.88552 6.91757 4.06477 6.71132 4.25002C3.65057 6.99277 2.01707 11.0923 2.22932 15.5C2.43407 19.4893 3.75182 24.8225 8.73407 27.9808C8.70557 29.09 8.68307 30.2315 8.76107 31.3858C8.81432 32.0878 8.87507 32.8835 8.99957 33.674C9.67457 38.0405 11.0066 42.9223 15.7661 46.0205C16.9083 46.7638 18.7556 47.8408 20.0043 46.6693C20.8758 45.851 21.0941 44.3758 21.1556 43.2395C21.1578 43.1863 21.4466 38.2963 24.0386 33.4633C25.0856 35.1905 26.7236 38.6255 27.3033 43.889C27.4661 45.3665 28.1028 47.2093 29.8938 47.2093C30.8261 47.2093 31.6706 46.6933 32.0066 46.4885C34.8251 44.7688 36.7916 42.4303 38.0186 39.341C39.4833 35.6675 39.6273 32.0945 39.3386 27.9463C44.2908 24.77 45.5831 19.463 45.7691 15.4918C45.9926 11.0855 44.3621 6.98827 41.2976 4.25077ZM29.7438 23.552C28.4658 22.6528 26.6861 21.6508 24.6438 20.9045C24.1968 20.741 23.7971 20.627 23.3583 20.9045C21.3213 21.6485 19.5453 22.6468 18.2688 23.5445C18.0468 20.615 17.1888 17.6593 16.3923 15.5143L21.7143 16.8958C23.3658 17.3255 25.1096 17.315 26.7551 16.8658L31.5911 15.506C30.8133 17.6743 29.9628 20.6278 29.7438 23.552ZM24.7931 30.6343C24.5583 30.374 24.2193 30.2383 23.8676 30.266C23.5188 30.2938 23.2023 30.4828 23.0126 30.7775C19.2971 36.5315 18.9243 42.854 18.9108 43.1188C18.9101 43.127 18.9086 43.1345 18.9086 43.1428C15.9671 36.08 17.7963 28.0325 18.1848 26.519C18.6123 26.0038 20.9201 24.218 24.0011 23.0653C27.1286 24.2353 29.4618 26.06 29.8376 26.543C30.2838 28.0123 32.5271 36.221 29.5038 43.361C28.4966 34.8418 24.9461 30.8023 24.7931 30.6343ZM16.8303 44.0188C12.9483 41.393 11.8128 37.1495 11.2218 33.3253C11.1108 32.6218 11.0538 31.8733 11.0043 31.2223C10.9278 30.101 10.9571 28.9843 10.9878 27.8C11.0043 27.1295 10.9293 26.6758 10.3128 26.3173C5.82107 23.708 4.65707 18.935 4.47482 15.3853C4.29557 11.6608 5.65682 8.21152 8.21132 5.92252C9.75107 4.54252 11.6396 3.62152 13.6728 3.24802C15.6468 2.88577 17.6433 2.95927 19.4516 3.89677C22.3008 5.37427 25.7036 5.37502 28.5536 3.89677C29.6321 3.33727 30.7946 3.04027 31.9158 3.03802C33.4916 3.03802 35.0658 3.29152 36.5313 3.88102C37.7298 4.36327 38.8346 5.06152 39.7961 5.92402C42.3513 8.20702 43.7103 11.6518 43.5228 15.3785C43.3563 18.9515 42.1968 23.7545 37.6241 26.3683C37.2873 26.561 37.0151 27.0298 37.0526 27.4415C37.3803 31.5733 37.3143 35.0353 35.9298 38.507C35.0163 40.8073 33.6206 42.6148 31.6796 44.0075C33.8831 38.6353 33.7338 32.3825 32.2608 26.834C31.3518 23.411 32.5428 19.5178 33.7076 16.265C33.9873 15.4843 33.8111 14.6218 33.2478 14.0113C32.6786 13.3978 31.8236 13.1525 31.0203 13.3715L26.1618 14.6938C24.8936 15.0388 23.5511 15.047 22.2776 14.717L16.9556 13.3355C16.1523 13.1263 15.3048 13.3783 14.7446 13.9918C14.1881 14.6015 14.0156 15.461 14.2938 16.2358C15.4053 19.3325 16.6053 22.7983 15.9513 26.126C15.5126 28.3565 15.1091 30.5428 15.0176 32.825C14.9448 34.643 15.0191 36.4693 15.2763 38.2708C15.4848 39.7288 15.8178 41.1853 16.2881 42.5818C16.2881 42.5818 16.6211 43.7608 16.8303 44.0188Z" fill="white" stroke="#25B4F8" stroke-width="0.7"/>
</svg>
