<svg width="174" height="8" viewBox="0 0 174 8" fill="none" xmlns="http://www.w3.org/2000/svg">
<path fill-rule="evenodd" clip-rule="evenodd" d="M4.1894 3.59979C7.85721 3.86359 17.4844 3.73856 43.6185 3.38778C84.4278 2.83809 116.821 2.71319 125.83 3.0893C126.545 3.12645 69.3467 4.31289 63.4685 4.14494C54.3046 3.86634 10.575 4.85563 1.78142 5.46057C-0.71839 5.62415 0.226252 6.05481 1.8582 6.12617C4.40686 6.2476 11.2416 6.13169 29.9814 5.82565C43.1596 5.61689 148.012 4.44729 159.48 4.93028C165.918 5.20115 169.832 5.47722 171.618 5.37172C173.113 5.28633 173.133 5.09555 171.83 4.59078C170.953 4.25437 171.933 4.03366 172.557 3.92928C173.515 3.75652 173.105 3.22279 171.893 2.81194C170.254 2.24858 167.44 2.30565 168.788 2.87325C169.081 2.99597 169.152 3.3124 168.124 3.26396C165.128 3.11732 143.957 2.12552 138.213 1.98735C76.8865 0.47209 17.0954 3.10928 4.42207 2.70743C-0.0707961 2.55095 1.99765 3.44138 4.1894 3.59979Z" fill="#25B4F8"/>
</svg>
