<svg width="20" height="20" viewBox="0 0 20 20" fill="none" xmlns="http://www.w3.org/2000/svg">
<path fill-rule="evenodd" clip-rule="evenodd" d="M10 1.5C5.313 1.5 1.5 5.313 1.5 10C1.5 14.687 5.313 18.5 10 18.5C14.687 18.5 18.5 14.687 18.5 10C18.5 5.313 14.687 1.5 10 1.5ZM10 20C4.486 20 0 15.514 0 10C0 4.486 4.486 0 10 0C15.514 0 20 4.486 20 10C20 15.514 15.514 20 10 20Z" fill="#011632"/>
<path fill-rule="evenodd" clip-rule="evenodd" d="M8.55895 14.221C8.36695 14.221 8.17395 14.148 8.02795 14C7.73595 13.706 7.73695 13.232 8.02995 12.94L10.9819 10L8.02995 7.06105C7.73695 6.76905 7.73595 6.29405 8.02795 6.00005C8.31995 5.70505 8.79395 5.70705 9.08795 5.99805L12.5739 9.46905C12.7149 9.61005 12.7939 9.80105 12.7939 10C12.7939 10.2 12.7149 10.391 12.5739 10.532L9.08795 14.002C8.94195 14.148 8.74995 14.221 8.55895 14.221Z" fill="#011632"/>
</svg>
