<svg width="20" height="20" viewBox="0 0 20 20" fill="none" xmlns="http://www.w3.org/2000/svg">
<mask id="mask0_976_981" style="mask-type:luminance" maskUnits="userSpaceOnUse" x="3" y="1" width="15" height="18">
<path fill-rule="evenodd" clip-rule="evenodd" d="M3.33398 1.66797H17.473V18.631H3.33398V1.66797Z" fill="white"/>
</mask>
<g mask="url(#mask0_976_981)">
<path fill-rule="evenodd" clip-rule="evenodd" d="M10.4035 2.91797C9.69683 2.91797 5.2385 4.48797 4.72433 4.91714C4.57266 5.06964 4.56683 5.33464 4.59933 7.1088C4.61433 7.9638 4.63516 9.12547 4.63516 10.7338C4.63516 15.068 9.4035 16.9921 10.4027 17.3463C11.401 16.9905 16.1718 15.0555 16.1718 10.7338C16.1718 9.1238 16.1927 7.9613 16.2085 7.1063C16.2402 5.3338 16.2343 5.0688 16.0735 4.9088C15.5693 4.48797 11.1102 2.91797 10.4035 2.91797ZM10.4035 18.6313C10.3427 18.6313 10.2818 18.623 10.2227 18.6046C9.9435 18.5205 3.38516 16.4688 3.38516 10.7338C3.38516 9.1363 3.36433 7.98047 3.34933 7.13214C3.311 5.01297 3.30266 4.5713 3.85016 4.02464C4.50433 3.3688 9.4585 1.66797 10.4035 1.66797C11.3477 1.66797 16.3018 3.3688 16.9577 4.02464C17.5043 4.5713 17.496 5.01297 17.4577 7.12964C17.4427 7.97797 17.4218 9.1338 17.4218 10.7338C17.4218 16.4688 10.8635 18.5205 10.5843 18.6046C10.5252 18.623 10.4643 18.6313 10.4035 18.6313Z" fill="#1376F8"/>
</g>
<path fill-rule="evenodd" clip-rule="evenodd" d="M9.81484 12.1014C9.64901 12.1014 9.48984 12.0355 9.37234 11.918L7.79568 10.3397C7.55234 10.0955 7.55234 9.69885 7.79651 9.45552C8.03984 9.21135 8.43651 9.21135 8.68068 9.45552L9.81484 10.5914L12.6215 7.78469C12.8657 7.54052 13.2607 7.54052 13.5048 7.78469C13.749 8.02885 13.749 8.42469 13.5048 8.66885L10.2565 11.918C10.1398 12.0355 9.98068 12.1014 9.81484 12.1014Z" fill="#1376F8"/>
</svg>
